HIERARCHY
ROOT Hips
{
  OFFSET -0.589095 22.1471 2.58842
  CHANNELS 6 Xposition Yposition Zposition Zrotation Xrotation Yrotation
  JOINT BN_Bip01_Pelvis
  {
    OFFSET -3.49357 -5.29363 -0.000213444
    CHANNELS 6 Xposition Yposition Zposition Zrotation Xrotation Yrotation
    JOINT BN_leg_R_01
    {
      OFFSET 10.8127 -7.82778 -6.29737
      CHANNELS 6 Xposition Yposition Zposition Zrotation Xrotation Yrotation
      JOINT BN_leg_R_02
      {
        OFFSET 8.91071 0 0
        CHANNELS 6 Xposition Yposition Zposition Zrotation Xrotation Yrotation
        JOINT BN_leg_R_03
        {
          OFFSET 15.6024 0 0
          CHANNELS 6 Xposition Yposition Zposition Zrotation Xrotation Yrotation
          JOINT BN_leg_R_04
          {
            OFFSET 9.68174 0 0
            CHANNELS 6 Xposition Yposition Zposition Zrotation Xrotation Yrotation
            JOINT BN_leg_R_05
            {
              OFFSET 10.6982 0 0
              CHANNELS 6 Xposition Yposition Zposition Zrotation Xrotation Yrotation
              JOINT BN_Leg_R_05Nub
              {
                OFFSET 11.1504 0 0
                CHANNELS 6 Xposition Yposition Zposition Zrotation Xrotation Yrotation
                End Site
                {
                  OFFSET 0 0 0
                }
              }
            }
          }
        }
      }
    }
    JOINT BN_leg_R_06
    {
      OFFSET 6.51511 -7.99898 -4.29089
      CHANNELS 6 Xposition Yposition Zposition Zrotation Xrotation Yrotation
      JOINT BN_Leg_R_07
      {
        OFFSET 9.03709 0 0
        CHANNELS 6 Xposition Yposition Zposition Zrotation Xrotation Yrotation
        JOINT BN_Leg_R_08
        {
          OFFSET 18.7638 0 0
          CHANNELS 6 Xposition Yposition Zposition Zrotation Xrotation Yrotation
          JOINT BN_Leg_R_09
          {
            OFFSET 10.9666 0 0
            CHANNELS 6 Xposition Yposition Zposition Zrotation Xrotation Yrotation
            JOINT BN_Leg_R_10
            {
              OFFSET 10.8726 0 0
              CHANNELS 6 Xposition Yposition Zposition Zrotation Xrotation Yrotation
              JOINT BN_Leg_R_10Nub
              {
                OFFSET 11.2648 0 0
                CHANNELS 6 Xposition Yposition Zposition Zrotation Xrotation Yrotation
                End Site
                {
                  OFFSET 0 0 0
                }
              }
            }
          }
        }
      }
    }
    JOINT BN_Leg_R_11
    {
      OFFSET 2.71429 -8.18693 -0.209972
      CHANNELS 6 Xposition Yposition Zposition Zrotation Xrotation Yrotation
      JOINT BN_Leg_R_12
      {
        OFFSET 9.8713 0 0
        CHANNELS 6 Xposition Yposition Zposition Zrotation Xrotation Yrotation
        JOINT BN_Leg_R_13
        {
          OFFSET 21.8657 0 0
          CHANNELS 6 Xposition Yposition Zposition Zrotation Xrotation Yrotation
          JOINT BN_Leg_R_14
          {
            OFFSET 11.0011 0 0
            CHANNELS 6 Xposition Yposition Zposition Zrotation Xrotation Yrotation
            JOINT BN_Leg_R_15
            {
              OFFSET 12.8798 0 0
              CHANNELS 6 Xposition Yposition Zposition Zrotation Xrotation Yrotation
              JOINT BN_Leg_R_15Nub
              {
                OFFSET 13.0642 0 0
                CHANNELS 6 Xposition Yposition Zposition Zrotation Xrotation Yrotation
                End Site
                {
                  OFFSET 0 0 0
                }
              }
            }
          }
        }
      }
    }
    JOINT BN_Leg_L_11
    {
      OFFSET 2.7143 8.18692 -0.209982
      CHANNELS 6 Xposition Yposition Zposition Zrotation Xrotation Yrotation
      JOINT BN_Leg_L_12
      {
        OFFSET 9.87129 0 0
        CHANNELS 6 Xposition Yposition Zposition Zrotation Xrotation Yrotation
        JOINT BN_Leg_L_13
        {
          OFFSET 21.8657 0 0
          CHANNELS 6 Xposition Yposition Zposition Zrotation Xrotation Yrotation
          JOINT BN_Leg_L_14
          {
            OFFSET 11.0011 0 0
            CHANNELS 6 Xposition Yposition Zposition Zrotation Xrotation Yrotation
            JOINT BN_Leg_L_15
            {
              OFFSET 12.8798 0 0
              CHANNELS 6 Xposition Yposition Zposition Zrotation Xrotation Yrotation
              JOINT BN_Leg_L_15Nub
              {
                OFFSET 13.0642 0 0
                CHANNELS 6 Xposition Yposition Zposition Zrotation Xrotation Yrotation
                End Site
                {
                  OFFSET 0 0 0
                }
              }
            }
          }
        }
      }
    }
    JOINT BN_leg_L_06
    {
      OFFSET 6.51511 7.99896 -4.29091
      CHANNELS 6 Xposition Yposition Zposition Zrotation Xrotation Yrotation
      JOINT BN_Leg_L_07
      {
        OFFSET 9.03709 0 0
        CHANNELS 6 Xposition Yposition Zposition Zrotation Xrotation Yrotation
        JOINT BN_Leg_L_08
        {
          OFFSET 18.7638 0 0
          CHANNELS 6 Xposition Yposition Zposition Zrotation Xrotation Yrotation
          JOINT BN_Leg_L_09
          {
            OFFSET 10.9666 0 0
            CHANNELS 6 Xposition Yposition Zposition Zrotation Xrotation Yrotation
            JOINT BN_Leg_L_10
            {
              OFFSET 10.8726 0 0
              CHANNELS 6 Xposition Yposition Zposition Zrotation Xrotation Yrotation
              JOINT BN_Leg_L_10Nub
              {
                OFFSET 11.2649 0 0
                CHANNELS 6 Xposition Yposition Zposition Zrotation Xrotation Yrotation
                End Site
                {
                  OFFSET 0 0 0
                }
              }
            }
          }
        }
      }
    }
    JOINT BN_leg_L_01
    {
      OFFSET 10.8127 7.82776 -6.29737
      CHANNELS 6 Xposition Yposition Zposition Zrotation Xrotation Yrotation
      JOINT BN_leg_L_02
      {
        OFFSET 8.91072 0 0
        CHANNELS 6 Xposition Yposition Zposition Zrotation Xrotation Yrotation
        JOINT BN_leg_L_03
        {
          OFFSET 15.6024 0 0
          CHANNELS 6 Xposition Yposition Zposition Zrotation Xrotation Yrotation
          JOINT BN_leg_L_04
          {
            OFFSET 9.68174 0 0
            CHANNELS 6 Xposition Yposition Zposition Zrotation Xrotation Yrotation
            JOINT BN_leg_L_05
            {
              OFFSET 10.6982 0 0
              CHANNELS 6 Xposition Yposition Zposition Zrotation Xrotation Yrotation
              JOINT BN_Leg_L_05Nub
              {
                OFFSET 11.1504 0 0
                CHANNELS 6 Xposition Yposition Zposition Zrotation Xrotation Yrotation
                End Site
                {
                  OFFSET 0 0 0
                }
              }
            }
          }
        }
      }
    }
    JOINT BN_Eye_L_01
    {
      OFFSET 28.5502 2.54627 -3.93739
      CHANNELS 6 Xposition Yposition Zposition Zrotation Xrotation Yrotation
      JOINT BN_Eye_L_02
      {
        OFFSET 2.30267 0 0
        CHANNELS 6 Xposition Yposition Zposition Zrotation Xrotation Yrotation
        JOINT BN_Eye_L_03
        {
          OFFSET 5.31894 0 0
          CHANNELS 6 Xposition Yposition Zposition Zrotation Xrotation Yrotation
          JOINT BN_Eye_L_04
          {
            OFFSET 9.71244 0 0
            CHANNELS 6 Xposition Yposition Zposition Zrotation Xrotation Yrotation
            End Site
            {
              OFFSET 0 0 0
            }
          }
        }
      }
    }
    JOINT BN_Eye_R_01
    {
      OFFSET 28.5502 -2.54612 -3.93738
      CHANNELS 6 Xposition Yposition Zposition Zrotation Xrotation Yrotation
      JOINT BN_Eye_R_02
      {
        OFFSET 2.30267 0 0
        CHANNELS 6 Xposition Yposition Zposition Zrotation Xrotation Yrotation
        JOINT BN_Eye_R_03
        {
          OFFSET 5.31896 0 0
          CHANNELS 6 Xposition Yposition Zposition Zrotation Xrotation Yrotation
          JOINT BN_Eye_R_04
          {
            OFFSET 9.71244 0 0
            CHANNELS 6 Xposition Yposition Zposition Zrotation Xrotation Yrotation
            End Site
            {
              OFFSET 0 0 0
            }
          }
        }
      }
    }
    JOINT BN_Arm_L_01
    {
      OFFSET 15.9737 8.03546 -8.36195
      CHANNELS 6 Xposition Yposition Zposition Zrotation Xrotation Yrotation
      JOINT BN_Arm_L_02
      {
        OFFSET 16.8869 0 0
        CHANNELS 6 Xposition Yposition Zposition Zrotation Xrotation Yrotation
        JOINT BN_Arm_L_03
        {
          OFFSET 8.42975 0 0
          CHANNELS 6 Xposition Yposition Zposition Zrotation Xrotation Yrotation
          JOINT BN_Arm_L_04
          {
            OFFSET 7.53864 -0.0312023 2.09083
            CHANNELS 6 Xposition Yposition Zposition Zrotation Xrotation Yrotation
            End Site
            {
              OFFSET 0 0 0
            }
          }
        }
      }
    }
    JOINT BN_Arm_R_01
    {
      OFFSET 14.7806 -6.70232 -9.44366
      CHANNELS 6 Xposition Yposition Zposition Zrotation Xrotation Yrotation
      JOINT BN_Arm_R_02
      {
        OFFSET 19.9827 0 0
        CHANNELS 6 Xposition Yposition Zposition Zrotation Xrotation Yrotation
        JOINT BN_Arm_R_03
        {
          OFFSET 17.4553 0 0
          CHANNELS 6 Xposition Yposition Zposition Zrotation Xrotation Yrotation
          JOINT BN_Arm_R_04
          {
            OFFSET 13.3834 -2.22657 7.3982
            CHANNELS 6 Xposition Yposition Zposition Zrotation Xrotation Yrotation
            End Site
            {
              OFFSET 0 0 0
            }
          }
        }
      }
    }
  }
}
MOTION
Frames:	4
Frame Time:	0.0333333
-20.7244 22.6378 -0.219456 -0 -0.00379759 -0 -3.49325 -8.0258 0 -163.39 -84.4569 153.045 10.8127 -7.82778 -6.29736 -119.037 29.9131 44.0179 8.91072 -1.90735e-006 9.53674e-007 62.2641 0.0746794 1.32768 15.6024 3.8147e-006 -9.53674e-007 -81.002 6.40727 27.8343 9.68174 -3.8147e-006 1.90735e-006 -15.8598 0.598458 -9.51446 10.6982 3.8147e-006 -9.53674e-007 -29.013 4.11553 0.739982 11.1504 3.8147e-006 9.53674e-007 1.92694e-007 9.90956e-006 5.87042e-008 6.5151 -7.99898 -4.29089 -151.431 17.2349 24.6094 9.03709 0 0 103.894 -2.42045 -2.82753 18.7638 1.90735e-006 3.8147e-006 -87.6132 8.60683 23.3355 10.9665 -3.8147e-006 0 -20.6561 -0.579887 -0.933949 10.8726 3.8147e-006 0 -19.0245 -0.0165526 -2.12335 11.2648 3.8147e-006 -3.8147e-006 -3.32808e-007 1.38199e-007 -4.5863e-008 2.71429 -8.18693 -0.209972 -137.024 32.8948 -3.67541 9.87128 0 -3.55271e-015 62.9761 2.25677 -0.50058 21.8657 -9.53674e-007 -1.90735e-006 -61.8222 1.51715 4.78169 11.0011 3.8147e-006 1.90735e-006 -17.4722 -0.323997 -0.792819 12.8798 3.81469e-006 1.90735e-006 -26.449 -0.0312186 0.0717003 13.0642 7.10542e-015 7.6294e-006 -5.82486e-008 1.04788e-005 2.34004e-007 2.7143 8.18692 -0.209976 114.31 -35.6461 -25.2407 9.8713 -9.53674e-007 -1.90735e-006 -46.0439 -2.37895 -0.330715 21.8657 9.53674e-007 -1.90735e-006 50.801 -1.95714 5.66215 11.0011 -3.8147e-006 -3.55271e-015 21.8709 0.348847 -0.904455 12.8798 3.8147e-006 3.8147e-006 31.8188 0.0307205 0.0312509 13.0642 7.62939e-006 1.90735e-006 -5.58781e-007 8.33514e-007 9.7326e-008 6.51512 7.99896 -4.2909 109.053 -25.8424 11.4887 9.03709 9.53674e-007 1.90735e-006 -72.1689 1.78514 -2.74611 18.7638 1.43051e-006 -3.55271e-015 80.2117 -13.5984 21.1937 10.9666 -7.10542e-015 0 34.3004 0.429959 -1.85658 10.8726 7.62939e-006 0 32.5081 0.0147373 -3.06095 11.2648 0 0 2.01991e-007 7.80031e-008 9.79392e-009 10.8127 7.82776 -6.29737 92.576 -37.2453 45.2329 8.91072 2.86102e-006 0 -42.5896 0.32046 0.766751 15.6024 1.77636e-015 9.53674e-007 58.505 -5.11018 19.1834 9.68174 0 -3.8147e-006 23.8123 0.078985 -11.6487 10.6982 3.8147e-006 0 38.8145 -4.11631 -0.44144 11.1504 -3.8147e-006 -1.90735e-006 4.72697e-008 4.01501e-006 -3.31285e-009 28.5502 2.54627 -3.93738 89.995 -40.8534 50.3814 2.30267 -1.90735e-006 0 -41.2041 0.980072 -6.44296 5.31895 3.55271e-015 2.38419e-007 -12.8811 2.21495 -7.45755 9.71243 3.55271e-015 8.88179e-016 -19.1236 -0.00194511 3.10673 28.5502 -2.54612 -3.93737 89.9968 -39.1541 129.609 2.30267 -1.90735e-006 4.76837e-007 -45.2354 -1.36562 6.09542 5.31894 1.90735e-006 4.76837e-007 -12.0797 0.0763537 5.9293 9.71243 0 -2.98023e-007 -22.5615 -1.21319 0.20021 15.9737 8.03546 -8.36195 56.5593 26.2117 3.73449 16.8869 -2.66453e-015 -1.90735e-006 -51.5045 4.95735 -14.8467 8.42976 -3.55271e-015 -3.8147e-006 -25.5911 -3.64236e-006 1.15565e-005 7.53865 -0.031208 2.09083 -7.43618 -4.90694 -12.3517 14.7806 -6.70232 -9.44365 -41.6272 -48.7721 14.5159 19.9827 2.86102e-006 -9.53674e-007 36.1934 1.18591 -25.3426 17.4553 -3.8147e-006 3.33786e-006 25.0463 -3.83222 -0.105507 13.3835 -2.22653 7.3982 8.80083 1.66465 -20.5323 
-21.523 20.9544 -0.219456 -10.7691 5.89017 7.25817 -3.49325 -8.0258 -8.88178e-016 -163.39 -84.4569 153.045 10.8127 -7.82778 -6.29736 -100.865 42.9486 25.0503 8.91072 -1.90735e-006 9.53674e-007 53.4992 -0.141225 1.07661 15.6024 3.8147e-006 -9.53674e-007 -68.5533 12.0768 34.7977 9.68174 -3.8147e-006 1.90735e-006 -23.2228 -0.0268733 -11.4978 10.6982 3.8147e-006 -9.53674e-007 -38.0993 4.11733 -0.354756 11.1504 3.8147e-006 9.53674e-007 1.92694e-007 9.90956e-006 5.87042e-008 6.5151 -7.99898 -4.29089 -140.93 27.7003 15.414 9.03709 -1.77636e-015 0 100.737 -2.36242 -2.87339 18.7638 1.90735e-006 3.8147e-006 -87.0363 10.561 27.4952 10.9665 -3.8147e-006 1.63425e-013 -22.1772 -0.566403 -1.03813 10.8726 3.8147e-006 1.06581e-014 -20.5202 -0.0144304 -2.23878 11.2648 3.8147e-006 -3.8147e-006 -3.32808e-007 1.38199e-007 -4.5863e-008 2.71429 -8.18693 -0.209972 -134.723 36.7975 -11.359 9.87128 0 -3.55271e-015 61.9452 2.27882 -0.485078 21.8657 -9.53674e-007 -1.90735e-006 -59.853 4.74543 11.2306 11.0011 3.8147e-006 1.90735e-006 -20.2418 -0.340064 -0.864127 12.8798 3.81469e-006 1.90735e-006 -29.8369 -0.0238787 0.0496428 13.0642 0 7.6294e-006 -5.82486e-008 1.04788e-005 2.34004e-007 2.7143 8.18692 -0.209976 128.324 -31.9295 -6.44054 9.8713 -9.53674e-007 -1.90735e-006 -56.8631 -2.30918 -0.442386 21.8657 9.53674e-007 -1.90735e-006 60.9156 -3.99039 9.41377 11.0011 -3.8147e-006 -1.42109e-014 20.1814 0.381037 -0.878341 12.8798 3.8147e-006 3.8147e-006 29.7653 0.0357566 0.0431289 13.0642 7.6294e-006 1.90735e-006 -5.58781e-007 8.33513e-007 9.7326e-008 6.51512 7.99896 -4.2909 105.365 -20.5236 18.1266 9.03709 9.53674e-007 1.90735e-006 -73.6061 1.81391 -2.77928 18.7638 1.43051e-006 -6.75016e-014 79.9312 -20.1412 29.6118 10.9666 -7.10542e-015 3.55271e-015 37.7104 0.385415 -2.07851 10.8726 7.62939e-006 2.13163e-014 35.8954 0.0158782 -3.26109 11.2648 7.10542e-015 1.06581e-014 2.01991e-007 7.80031e-008 9.79392e-009 10.8127 7.82776 -6.29737 74.3776 -40.4045 40.8287 8.91072 2.86102e-006 -4.61853e-014 -33.1031 0.409221 0.519204 15.6024 -5.32907e-015 9.53674e-007 46.1966 -14.2664 32.2308 9.68174 -8.88179e-014 -3.8147e-006 29.6179 0.574811 -13.1022 10.6982 3.8147e-006 1.06581e-014 45.8057 -4.11367 -1.31677 11.1504 -3.8147e-006 -1.90735e-006 4.72697e-008 4.01501e-006 -3.31285e-009 28.5502 2.54627 -3.93738 89.995 -40.8534 50.3814 2.30267 -1.90735e-006 -3.55271e-015 -58.9251 3.75379 -14.0294 5.31895 0 2.38419e-007 -15.3182 0.538953 -9.11459 9.71243 1.15463e-014 6.21725e-015 -15.9139 -5.98409 2.61517 28.5502 -2.54612 -3.93737 89.9968 -39.1541 129.609 2.30267 -1.90735e-006 4.76837e-007 -65.895 -5.96422 14.5477 5.31894 1.90735e-006 4.76837e-007 -15.0796 0.0366245 7.28239 9.71243 1.77636e-015 -2.98023e-007 -18.3946 2.34869 -0.938054 15.9737 8.03546 -8.36195 55.9361 26.7398 4.72129 16.8869 -1.77636e-015 -1.90735e-006 -47.6219 2.56164 -24.6251 8.42976 7.10543e-015 -3.8147e-006 -20.1185 -1.3118 -9.17764 7.53865 -0.031208 2.09083 -7.41124 -4.92745 -12.9472 14.7806 -6.70232 -9.44365 -51.2998 -40.8661 -7.11105 19.9827 2.86102e-006 -9.53674e-007 28.8078 2.42253 -18.2999 17.4553 -3.8147e-006 3.33786e-006 19.156 0.248323 6.01377 13.3835 -2.22653 7.3982 8.80161 1.68812 -17.9137 
-22.6559 19.2493 -0.219456 -22.4994 9.02743 13.8282 -3.49325 -8.0258 -1.77636e-015 -163.39 -84.4569 153.045 10.8127 -7.82778 -6.29736 -74.5288 50.5349 -0.682574 8.91072 -1.90735e-006 9.53674e-007 36.1515 -0.387479 0.59367 15.6024 3.8147e-006 -9.53674e-007 -48.1534 19.3223 40.8305 9.68174 -3.8147e-006 1.90735e-006 -31.0334 -0.694089 -13.4445 10.6982 3.8147e-006 -9.53674e-007 -47.4944 4.11487 -1.52666 11.1504 3.8147e-006 9.53674e-007 1.92694e-007 9.90956e-006 5.87042e-008 6.5151 -7.99898 -4.29089 -129.824 36.2949 5.47754 9.03709 -6.21725e-015 -3.55271e-015 96.5245 -2.28005 -2.92003 18.7638 1.90735e-006 3.8147e-006 -86.2097 12.0546 31.0812 10.9665 -3.8147e-006 2.30926e-013 -22.9721 -0.555637 -1.09432 10.8726 3.8147e-006 1.06581e-014 -21.2988 -0.0162163 -2.2984 11.2648 3.8147e-006 -3.8147e-006 -3.32808e-007 1.38199e-007 -4.5863e-008 2.71429 -8.18693 -0.209972 -135.493 39.4492 -15.6547 9.87128 7.10543e-015 0 62.3822 2.26972 -0.492241 21.8657 -9.53674e-007 -1.90735e-006 -58.3982 8.68185 17.4883 11.0011 3.8147e-006 1.90735e-006 -23.1513 -0.357802 -0.937182 12.8798 3.81469e-006 1.90735e-006 -33.3674 -0.0134365 0.027651 13.0642 0 7.6294e-006 -5.82486e-008 1.04789e-005 2.34004e-007 2.7143 8.18692 -0.209976 134.82 -25.982 6.7498 9.8713 -9.53674e-007 -1.90735e-006 -63.3416 -2.25402 -0.502959 21.8657 9.53674e-007 -1.90735e-006 66.1652 -6.18755 13.6523 11.0011 -3.8147e-006 -3.55271e-015 20.1497 0.381467 -0.878285 12.8798 3.8147e-006 3.8147e-006 29.7259 0.0357261 0.0431514 13.0642 7.6294e-006 1.90735e-006 -5.58781e-007 8.33513e-007 9.7326e-008 6.51512 7.99896 -4.2909 97.1454 -17.8893 19.5671 9.03709 9.53674e-007 1.90735e-006 -71.1547 1.76644 -2.72762 18.7638 1.43051e-006 -8.52651e-014 74.3466 -28.9535 39.4717 10.9666 7.10542e-015 1.06581e-014 42.8884 0.314439 -2.40432 10.8726 7.62939e-006 5.68434e-014 41.0573 0.014798 -3.53128 11.2648 0 0 2.01991e-007 7.80031e-008 9.79392e-009 10.8127 7.82776 -6.29737 37.8378 -45.8793 16.1223 8.91072 2.86102e-006 -3.55271e-014 -0.265798 0.479111 0.00111291 15.6024 1.77636e-015 9.53674e-007 16.5537 -30.6285 48.3301 9.68174 -1.13687e-013 -3.8147e-006 38.7182 1.31715 -15.2464 10.6982 3.8147e-006 2.13163e-014 56.6318 -4.11094 -2.61455 11.1504 -3.8147e-006 -1.90735e-006 4.72696e-008 4.01501e-006 -3.31285e-009 28.5502 2.54627 -3.93738 89.995 -40.8534 50.3813 2.30267 -1.90735e-006 1.77636e-015 -75.5814 6.22754 -21.4896 5.31895 8.88178e-016 2.38419e-007 -17.8028 -1.09656 -10.6967 9.71243 -9.76996e-015 5.32907e-015 -10.603 -11.8574 2.14821 28.5502 -2.54612 -3.93737 89.9968 -39.1541 129.609 2.30267 -1.90735e-006 4.76837e-007 -84.341 -11.0638 23.0829 5.31894 1.90735e-006 4.76837e-007 -17.9959 -0.169709 8.56747 9.71243 1.06582e-014 -2.98023e-007 -11.9283 5.84114 -3.03027 15.9737 8.03546 -8.36195 54.3926 28.0657 7.31248 16.8869 -3.55271e-015 -1.90735e-006 -44.8136 0.456047 -34.0819 8.42976 1.42109e-014 -3.8147e-006 -15.282 -2.56709 -18.1939 7.53865 -0.031208 2.09083 -7.3956 -4.93733 -13.926 14.7806 -6.70232 -9.44365 -54.6169 -35.2201 -23.1757 19.9827 2.86102e-006 -9.53674e-007 21.3514 3.49737 -11.6637 17.4553 -3.8147e-006 3.33786e-006 13.3493 3.76753 12.0902 13.3835 -2.22653 7.3982 8.79964 1.72526 -11.584 
-24.4033 19.5496 -0.219456 -19.5709 9.03262 12.7389 -3.49325 -8.0258 3.55271e-015 -163.39 -84.4569 153.045 10.8127 -7.82778 -6.29736 -75.6638 49.179 4.55062 8.91072 -1.90735e-006 9.53674e-007 32.7788 -0.411095 0.510962 15.6024 3.8147e-006 -9.53674e-007 -43.9493 18.2329 39.0522 9.68174 -3.8147e-006 1.90735e-006 -30.5122 -0.650431 -13.3177 10.6982 3.8147e-006 -9.53674e-007 -46.8741 4.11665 -1.44915 11.1504 3.8147e-006 9.53674e-007 1.92694e-007 9.90956e-006 5.87042e-008 6.5151 -7.99898 -4.29089 -126.004 34.2771 6.79741 9.03709 -8.43769e-015 3.55271e-015 96.1099 -2.27153 -2.92071 18.7638 1.90735e-006 3.8147e-006 -92.9676 8.41573 28.8564 10.9665 -3.8147e-006 -2.84217e-014 -17.0669 -0.610923 -0.689322 10.8726 3.8147e-006 1.77636e-014 -15.507 -0.0140816 -1.84083 11.2648 3.8147e-006 -3.8147e-006 -3.32808e-007 1.38199e-007 -4.5863e-008 2.71429 -8.18693 -0.209972 -133.685 38.831 -14.0577 9.87128 6.21725e-015 3.55271e-015 65.5667 2.20263 -0.53766 21.8657 -9.53674e-007 -1.90735e-006 -62.9881 7.14496 14.8007 11.0011 3.8147e-006 1.90735e-006 -21.821 -0.349251 -0.904292 12.8798 3.81469e-006 1.90735e-006 -31.757 -0.0191091 0.0384457 13.0642 -7.10542e-015 7.6294e-006 -5.82486e-008 1.04789e-005 2.34004e-007 2.7143 8.18692 -0.209976 133.845 -25.9553 6.35044 9.8713 -9.53674e-007 -1.90735e-006 -66.1578 -2.22899 -0.525345 21.8657 9.53674e-007 -1.90735e-006 69.9369 -5.33353 11.7443 11.0011 -3.8147e-006 0 19.2838 0.399217 -0.8595 12.8798 3.8147e-006 3.8147e-006 28.6671 0.0381571 0.0497204 13.0642 7.6294e-006 1.90735e-006 -5.58781e-007 8.33513e-007 9.7326e-008 6.51512 7.99896 -4.2909 95.4985 -17.0241 20.7468 9.03709 9.53674e-007 1.90735e-006 -69.3538 1.72887 -2.68313 18.7638 1.43051e-006 -9.9476e-014 72.4569 -27.4205 37.8869 10.9666 -7.10542e-015 3.55271e-015 41.98 0.328166 -2.34726 10.8726 7.62939e-006 1.10134e-013 40.1502 0.0153378 -3.48377 11.2648 0 1.42109e-014 2.01991e-007 7.80031e-008 9.79391e-009 10.8127 7.82776 -6.29737 41.244 -46.6154 18.8639 8.91072 2.86102e-006 -3.55271e-014 -0.594592 0.479054 0.012977 15.6024 -1.24345e-014 9.53674e-007 18.1242 -29.7171 45.7331 9.68174 -1.24345e-013 -3.8147e-006 39.5737 1.38503 -15.4377 10.6982 3.8147e-006 1.77636e-014 57.646 -4.11167 -2.7262 11.1504 -3.8147e-006 -1.90735e-006 4.72697e-008 4.01501e-006 -3.31285e-009 28.5502 2.54627 -3.93738 89.995 -40.8534 50.3813 2.30267 -1.90735e-006 -1.77636e-015 -65.7149 5.55829 -18.0799 5.31895 0 2.38419e-007 -12.0223 -0.237652 -9.18119 9.71243 0 7.10543e-015 -5.67989 -7.06704 2.78914 28.5502 -2.54612 -3.93737 89.9967 -39.1541 129.609 2.30267 -1.90735e-006 4.76837e-007 -69.2919 -13.3759 15.5478 5.31894 1.90735e-006 4.76837e-007 -11.8704 -0.941366 5.42811 9.71243 5.32907e-015 -2.98023e-007 -7.8137 1.68549 -4.94876 15.9737 8.03546 -8.36195 51.8912 29.884 11.2254 16.8869 -3.55271e-015 -1.90735e-006 -45.6757 0.627166 -32.0136 8.42976 2.13163e-014 -3.8147e-006 -16.3605 -2.71829 -16.2922 7.53865 -0.031208 2.09083 -7.39053 -4.94077 -15.1951 14.7806 -6.70232 -9.44365 -59.7376 -37.8893 -11.9227 19.9827 2.86102e-006 -9.53674e-007 31.0366 2.07892 -20.3611 17.4553 -3.8147e-006 3.33786e-006 20.8901 -0.905318 4.17911 13.3835 -2.22653 7.3982 8.7954 1.74454 -3.27763 
